<svg width="62" height="62" viewBox="0 0 62 62" fill="none" xmlns="http://www.w3.org/2000/svg">
<rect width="62" height="62" fill="white"/>
<path d="M1.54004 30.9939C1.54004 14.7329 14.7329 1.54004 30.9939 1.54004C47.2549 1.54004 60.4478 14.7329 60.4478 30.9939C60.4478 47.2549 47.2549 60.4478 30.9939 60.4478C14.7329 60.4478 1.54004 47.2672 1.54004 30.9939Z" stroke="#231F20" stroke-width="0.89" stroke-miterlimit="10"/>
<path d="M16.0458 36.6024C16.3772 36.6269 16.6594 36.6392 16.9417 36.676C17.4571 36.7497 17.9726 36.8233 18.4757 36.9215C18.8562 37.0074 19.0035 37.2283 18.9176 37.5228C18.8439 37.8051 18.5985 37.9278 18.2303 37.8419C17.3835 37.6456 16.5244 37.5597 15.6654 37.5719C15.4567 37.5719 15.3463 37.6333 15.2358 37.8174C14.5117 38.9587 13.7386 40.051 12.6218 40.8487C12.1923 41.1432 11.7259 41.4255 11.2473 41.6096C10.6705 41.8305 10.0937 41.7323 9.65186 41.2537C9.19778 40.7628 9.19778 40.1982 9.44323 39.6091C9.72549 38.9464 10.2409 38.4801 10.7932 38.0751C11.7504 37.3756 12.8182 36.9583 13.9963 36.7742C14.2295 36.7374 14.4627 36.7251 14.6958 36.676C14.794 36.6515 14.9045 36.5533 14.9658 36.4674C15.3585 35.9274 15.7267 35.3752 16.144 34.8474C16.5735 34.3197 17.1012 33.9147 17.7762 33.7429C18.7335 33.5097 19.6294 33.6816 20.4639 34.197C20.513 34.2338 20.5743 34.2706 20.6234 34.2952C20.6357 34.2952 20.6602 34.2952 20.6971 34.3075C20.8321 34.0375 20.9671 33.7552 21.1143 33.4729C21.7034 32.3439 22.4398 31.3498 23.5197 30.638C25.1642 29.558 27.0665 29.7298 28.576 31.0798C28.8337 31.313 29.0423 31.5707 29.2755 31.8284C29.3246 31.8898 29.386 31.9389 29.4596 32.0125C29.656 31.583 29.8278 31.178 30.0241 30.7853C30.5641 29.7053 31.19 28.6989 32.0982 27.889C32.8713 27.2017 33.7427 26.7476 34.8104 26.7967C35.5467 26.8335 36.1972 27.1158 36.7862 27.5453C37.8294 28.3062 38.5412 29.3494 39.1057 30.4907C39.4862 31.2516 39.7807 32.0616 40.1121 32.8348C40.1489 32.9084 40.1857 32.982 40.2225 33.0802C40.3084 33.0188 40.3943 32.982 40.4557 32.9329C41.1675 32.442 41.9652 32.258 42.8243 32.3807C43.4502 32.4666 43.9534 32.8348 44.3706 33.2888C44.9965 33.9761 45.426 34.7861 45.8556 35.5961C46.0151 35.8906 46.1501 36.1974 46.3219 36.4797C46.3833 36.5779 46.506 36.676 46.6042 36.6883C47.4633 36.8356 48.3101 37.0442 49.0955 37.4492C49.9423 37.8787 50.7032 38.4064 51.2432 39.2042C51.55 39.646 51.7218 40.1491 51.5623 40.6769C51.3414 41.45 50.5314 41.855 49.7582 41.6096C48.8378 41.315 48.126 40.7137 47.4878 40.0141C46.8742 39.3392 46.3956 38.5783 45.9538 37.7806C45.8556 37.6087 45.7451 37.5474 45.5488 37.5474C44.567 37.5351 43.5975 37.5965 42.6402 37.8296C42.3088 37.9033 42.0634 37.7806 41.9898 37.5228C41.9161 37.2283 42.0389 37.0319 42.407 36.9338C42.6525 36.8601 42.9102 36.811 43.1679 36.7742C43.7938 36.7129 44.4197 36.6638 45.0456 36.6147C45.107 36.6147 45.1683 36.5901 45.242 36.5779C45.242 36.5165 45.242 36.4797 45.2297 36.4429C44.7879 35.6206 44.3952 34.7861 43.7938 34.0743C43.5238 33.7552 43.2293 33.4852 42.8243 33.3625C42.1493 33.1538 41.5602 33.3625 40.9957 33.7184C40.9589 33.7429 40.9221 33.7675 40.8975 33.792C40.4802 34.0988 40.4925 34.1234 40.6152 34.6265C40.9834 36.136 41.2289 37.6578 41.143 39.2164C41.1061 39.7564 41.0325 40.2841 40.7748 40.775C40.5416 41.2291 40.1857 41.5482 39.658 41.5727C39.1426 41.5973 38.7621 41.3273 38.4921 40.8978C38.0871 40.2473 37.9889 39.5232 37.9889 38.7869C37.9889 37.081 38.3694 35.4856 39.3512 34.062C39.4003 33.9884 39.4248 33.8656 39.4003 33.792C38.8112 31.9266 38.0748 30.1348 36.6512 28.7112C36.1972 28.2571 35.6817 27.9258 35.0313 27.8031C34.1354 27.6435 33.399 27.9871 32.7486 28.5517C31.9877 29.2144 31.4477 30.0489 31.0059 30.9448C30.6868 31.583 30.4291 32.2457 30.1591 32.9084C30.1223 33.0066 30.1346 33.1538 30.1837 33.252C30.8341 34.5284 31.2514 35.8661 31.4477 37.2774C31.595 38.296 31.6318 39.3269 31.2759 40.321C31.0673 40.8978 30.7359 41.3641 30.0978 41.5114C29.4964 41.6586 28.9687 41.4377 28.6373 40.91C28.306 40.37 28.1955 39.7564 28.1587 39.1428C28.0851 38.0015 28.171 36.8601 28.4164 35.7433C28.5882 34.9456 28.8092 34.1725 28.9932 33.3747C29.0178 33.2888 29.0178 33.1661 28.981 33.0925C28.4532 32.258 27.8151 31.5339 26.8824 31.1412C25.6551 30.638 24.5506 30.9203 23.5688 31.7671C22.5625 32.6384 21.9489 33.7675 21.4457 34.9702C21.4211 35.0315 21.4457 35.1543 21.4825 35.2156C22.4029 36.6269 22.6975 38.161 22.4643 39.8055C22.4029 40.2473 22.2557 40.6769 21.9857 41.045C21.4457 41.7568 20.5007 41.72 20.0221 40.9714C19.7398 40.5296 19.6539 40.0264 19.6171 39.511C19.5435 38.1365 19.8134 36.811 20.2307 35.5102C20.2921 35.3383 20.243 35.2402 20.108 35.142C19.1876 34.4424 17.8621 34.2952 16.9294 35.3629C16.6472 35.682 16.4017 36.0379 16.1317 36.3815C16.0949 36.4429 16.0581 36.5042 15.9967 36.6147L16.0458 36.6024ZM29.705 34.4547C29.6682 34.5529 29.656 34.5897 29.6437 34.6265C29.5332 35.142 29.4105 35.6574 29.3123 36.1729C29.1405 37.1056 29.0423 38.0383 29.1037 38.9833C29.1405 39.4619 29.1773 39.9405 29.435 40.37C29.57 40.5909 29.7909 40.6769 29.9873 40.5541C30.11 40.4805 30.245 40.3578 30.2941 40.2228C30.4168 39.8546 30.5518 39.4864 30.5887 39.106C30.7114 37.6333 30.3923 36.2097 29.8769 34.8352C29.84 34.7247 29.7664 34.6143 29.6928 34.4424L29.705 34.4547ZM39.8175 35.2402H39.7439C39.7439 35.2402 39.6825 35.3383 39.658 35.3874C39.1057 36.5779 38.848 37.8419 38.9462 39.1551C38.983 39.5846 39.0444 40.0264 39.3021 40.4069C39.4985 40.6891 39.7684 40.6891 39.9034 40.3823C40.0262 40.1123 40.1243 39.8055 40.1612 39.4987C40.3084 38.2224 40.1612 36.9706 39.9034 35.7188C39.8666 35.5592 39.8298 35.3997 39.793 35.2279L39.8175 35.2402ZM14.0945 37.756C14.0945 37.756 14.0454 37.7315 14.0331 37.7315C13.8245 37.7806 13.6036 37.8174 13.395 37.8665C12.3886 38.1365 11.4805 38.6028 10.7564 39.3637C10.5477 39.5846 10.3882 39.8791 10.2655 40.1614C10.1428 40.4559 10.3268 40.7137 10.6459 40.7259C10.8177 40.7259 11.0018 40.6891 11.1614 40.6155C12.4254 40.0141 13.2968 38.9955 14.0699 37.8665C14.0945 37.8419 14.0945 37.7928 14.1068 37.756H14.0945ZM47.1319 37.7437C47.1319 37.7437 47.1074 37.7928 47.0951 37.8174C47.0951 37.8419 47.1074 37.8787 47.1319 37.9033C47.721 38.8851 48.396 39.7932 49.39 40.4191C49.6109 40.5541 49.8441 40.6769 50.0896 40.7382C50.5068 40.8609 50.8382 40.5173 50.6664 40.1246C50.5314 39.8178 50.335 39.511 50.0896 39.2655C49.5496 38.7133 48.8992 38.3328 48.1873 38.0751C47.8437 37.9524 47.4878 37.8542 47.1319 37.7437ZM21.1266 36.3692H21.0161C20.9916 36.4429 20.9671 36.5165 20.9425 36.5901C20.8566 36.9951 20.7462 37.4001 20.6848 37.8051C20.5743 38.5169 20.5007 39.241 20.6602 39.9651C20.6971 40.1491 20.7707 40.3209 20.8689 40.4805C20.9671 40.6523 21.1511 40.6646 21.2616 40.4805C21.372 40.2964 21.4702 40.0878 21.5193 39.8791C21.7157 39.106 21.6666 38.3328 21.4948 37.5597C21.4089 37.1547 21.2493 36.7619 21.1266 36.357V36.3692Z" fill="#231F20"/>
<path d="M34.3684 17.8133C36.2338 17.7642 38.1238 19.3228 38.1361 21.5686C38.1606 23.6549 36.4425 25.3608 34.3439 25.3608C32.2576 25.3608 30.564 23.6672 30.564 21.5932C30.564 19.4946 32.2821 17.7764 34.3562 17.8133H34.3684ZM34.3562 24.3913C35.927 24.4404 37.1788 23.0536 37.1788 21.6054C37.1788 20.2064 36.0743 18.7705 34.3807 18.7582C32.8221 18.746 31.5458 20.01 31.5458 21.5686C31.5458 23.1272 32.7976 24.3913 34.3562 24.3913Z" fill="#231F20"/>
<path d="M22.3907 25.2994C22.3907 23.5199 23.802 22.1331 25.557 22.1086C27.2629 22.0841 28.7724 23.4463 28.7724 25.3485C28.7724 27.0667 27.2997 28.4903 25.5447 28.4903C23.7775 28.4903 22.3784 27.0667 22.3907 25.2872V25.2994ZM27.8029 25.2749C27.8397 24.0108 26.7229 23.0659 25.5693 23.0659C24.3175 23.0659 23.3111 24.0967 23.3234 25.324C23.3357 26.5512 24.3666 27.5453 25.5938 27.533C26.8333 27.5208 27.8029 26.5267 27.7906 25.2626L27.8029 25.2749Z" fill="#231F20"/>
<path d="M18.488 32.1843C17.0644 32.1843 15.8863 30.9938 15.8985 29.558C15.8985 28.1221 17.0767 26.9562 18.5248 26.9685C19.9607 26.9685 21.1266 28.1466 21.1143 29.5948C21.1143 31.0307 19.9239 32.2088 18.488 32.1965V32.1843ZM20.1571 29.5702C20.1571 28.6498 19.4085 27.9135 18.5003 27.9135C17.5799 27.9135 16.8312 28.6621 16.8435 29.5948C16.8435 30.5152 17.5799 31.2393 18.5126 31.227C19.4453 31.227 20.1571 30.5029 20.1571 29.5702Z" fill="#231F20"/>
<path d="M45.119 28.2816C45.119 29.7298 43.9654 30.8957 42.5173 30.8957C41.0814 30.8957 39.9155 29.7175 39.9155 28.2816C39.9155 26.8703 41.0937 25.6921 42.5173 25.6921C43.9654 25.6921 45.119 26.8457 45.119 28.2939V28.2816ZM42.5173 29.9384C43.4377 29.9384 44.1863 29.2021 44.1986 28.2939C44.1986 27.3735 43.45 26.6248 42.5173 26.6248C41.5969 26.6248 40.8728 27.3612 40.8728 28.2939C40.8728 29.2266 41.5969 29.9507 42.5296 29.9507L42.5173 29.9384Z" fill="#231F20"/>
</svg>
