<svg width="50" height="49" viewBox="0 0 50 49" fill="none" xmlns="http://www.w3.org/2000/svg">
<g clip-path="url(#clip0_6509_9951)">
<path d="M0.995117 24.44C0.995117 11.19 11.7451 0.440002 24.9951 0.440002C38.2451 0.440002 48.9951 11.19 48.9951 24.44C48.9951 37.69 38.2451 48.44 24.9951 48.44C11.7451 48.44 0.995117 37.7 0.995117 24.44Z" stroke="#231F20" stroke-width="0.89" stroke-miterlimit="10"/>
<path d="M25.0951 24.69C24.9051 24.69 24.7451 24.65 24.7451 24.61V20.6C24.7451 20.6 24.8951 20.52 25.0951 20.52C25.2951 20.52 25.4451 20.56 25.4451 20.6V24.61C25.4451 24.61 25.2951 24.69 25.0951 24.69Z" fill="#231F20"/>
<path d="M25.0951 17.59C24.9051 17.59 24.7451 17.53 24.7451 17.46V11.23C24.7451 11.16 24.8951 11.1 25.0951 11.1C25.2951 11.1 25.4451 11.16 25.4451 11.23V17.46C25.4451 17.53 25.2951 17.59 25.0951 17.59Z" fill="#231F20"/>
<path d="M25.0551 32.88C24.8651 32.88 24.7051 32.84 24.7051 32.8V28.96C24.7051 28.96 24.8551 28.88 25.0551 28.88C25.2551 28.88 25.4051 28.92 25.4051 28.96V32.8C25.4051 32.8 25.2551 32.88 25.0551 32.88Z" fill="#231F20"/>
<path d="M26.5648 33.52C26.3848 33.45 26.3048 33.23 26.3748 33.02L33.1248 14.34C33.2048 14.13 33.4048 14.01 33.5848 14.07C33.7648 14.13 33.8448 14.36 33.7748 14.57L27.0248 33.25C26.9448 33.46 26.7448 33.58 26.5648 33.52Z" fill="#231F20"/>
<path d="M27.0249 34.13C26.8549 34.03 26.8049 33.82 26.9149 33.64L35.9149 18.17C36.0149 17.99 36.2349 17.93 36.3949 18.03C36.5549 18.13 36.6149 18.34 36.5049 18.52L27.5049 33.99C27.4049 34.17 27.1849 34.23 27.0249 34.13Z" fill="#231F20"/>
<path d="M27.5852 34.73C27.4352 34.61 27.4052 34.4 27.5252 34.26L37.6652 21.81C37.7852 21.67 37.9952 21.65 38.1452 21.77C38.2952 21.89 38.3252 22.1 38.2052 22.24L28.0652 34.69C27.9452 34.83 27.7352 34.85 27.5852 34.73Z" fill="#231F20"/>
<path d="M27.8146 35.22C27.6846 35.07 27.6746 34.88 27.7846 34.79L37.4846 26.47C37.5946 26.37 37.7846 26.41 37.9046 26.56C38.0246 26.71 38.0446 26.9 37.9346 26.99L28.2346 35.31C28.1246 35.41 27.9346 35.37 27.8146 35.22Z" fill="#231F20"/>
<path d="M27.9246 35.67C27.8246 35.5 27.8246 35.33 27.9246 35.27L36.3246 30.39C36.4246 30.33 36.5746 30.42 36.6746 30.59C36.7746 30.76 36.7746 30.93 36.6746 30.99L28.2746 35.87C28.1746 35.93 28.0246 35.84 27.9246 35.67Z" fill="#231F20"/>
<path d="M25.095 20.81C24.125 20.81 23.335 20.02 23.335 19.05C23.335 18.08 24.125 17.29 25.095 17.29C26.065 17.29 26.855 18.08 26.855 19.05C26.855 20.02 26.065 20.81 25.095 20.81ZM25.095 17.59C24.285 17.59 23.635 18.25 23.635 19.05C23.635 19.85 24.295 20.51 25.095 20.51C25.895 20.51 26.555 19.85 26.555 19.05C26.555 18.25 25.895 17.59 25.095 17.59Z" fill="#231F20" stroke="#231F20" stroke-width="0.2" stroke-miterlimit="10"/>
<path d="M25.0944 29.13C23.7944 29.13 22.7344 28.07 22.7344 26.78C22.7344 25.49 23.7944 24.43 25.0944 24.43C26.3944 24.43 27.4544 25.49 27.4544 26.78C27.4544 28.07 26.3944 29.13 25.0944 29.13ZM25.0944 24.82C24.0144 24.82 23.1344 25.7 23.1344 26.78C23.1344 27.86 24.0144 28.74 25.0944 28.74C26.1744 28.74 27.0544 27.86 27.0544 26.78C27.0544 25.7 26.1744 24.82 25.0944 24.82Z" fill="#231F20" stroke="#231F20" stroke-width="0.2" stroke-miterlimit="10"/>
<path d="M23.0845 33.25L16.3345 14.57C16.2545 14.36 16.3345 14.13 16.5245 14.07C16.7145 14.01 16.9145 14.12 16.9845 14.34L23.7345 33.02C23.8145 33.23 23.7345 33.46 23.5445 33.52C23.3545 33.58 23.1545 33.47 23.0845 33.25Z" fill="#231F20"/>
<path d="M22.4852 33.86L13.4852 18.39C13.3852 18.21 13.4352 17.99 13.5952 17.9C13.7552 17.81 13.9752 17.87 14.0752 18.04L23.0752 33.51C23.1752 33.69 23.1252 33.91 22.9652 34C22.8052 34.09 22.5852 34.03 22.4852 33.86Z" fill="#231F20"/>
<path d="M21.9347 34.57L11.7947 22.12C11.6747 21.98 11.7047 21.77 11.8547 21.65C12.0047 21.53 12.2147 21.55 12.3347 21.69L22.4747 34.14C22.5947 34.28 22.5647 34.49 22.4147 34.61C22.2647 34.73 22.0547 34.71 21.9347 34.57Z" fill="#231F20"/>
<path d="M25.0946 37.78C26.2646 37.78 27.2146 36.83 27.2146 35.65C27.2146 34.47 26.2646 33.53 25.0946 33.53C23.9246 33.53 22.9746 34.48 22.9746 35.65C22.9746 36.82 23.9246 37.78 25.0946 37.78Z" fill="#231F20"/>
<path d="M21.7551 35.19L12.0551 26.87C11.9451 26.77 11.9551 26.58 12.0851 26.44C12.2151 26.3 12.3951 26.25 12.5051 26.35L22.2051 34.67C22.3151 34.77 22.3051 34.96 22.1751 35.1C22.0451 35.24 21.8651 35.29 21.7551 35.19Z" fill="#231F20"/>
<path d="M21.725 35.74L13.325 30.86C13.225 30.8 13.225 30.63 13.325 30.46C13.425 30.29 13.575 30.21 13.675 30.26L22.075 35.14C22.175 35.2 22.175 35.37 22.075 35.54C21.975 35.71 21.825 35.79 21.725 35.74Z" fill="#231F20"/>
</g>
<defs>
<clipPath id="clip0_6509_9951">
<rect width="48.89" height="48.89" fill="white" transform="translate(0.554688)"/>
</clipPath>
</defs>
</svg>
