<svg width="54" height="54" viewBox="0 0 54 54" fill="none" xmlns="http://www.w3.org/2000/svg">
<g id="Layer_1" clip-path="url(#clip0_6509_10233)">
<g id="Group">
<path id="Vector" d="M0.486328 26.9945C0.486328 12.3596 12.3599 0.485962 26.9948 0.485962C41.6297 0.485962 53.5033 12.3596 53.5033 26.9945C53.5033 41.6293 41.6297 53.5029 26.9948 53.5029C12.3599 53.5029 0.486328 41.6404 0.486328 26.9945Z" stroke="#231F20" stroke-width="0.89" stroke-miterlimit="10"/>
<g id="Group_2">
<path id="Vector_2" d="M27.4919 32.1084C25.9346 32.1084 24.6533 30.8382 24.6533 29.2808C24.6533 27.7234 25.9235 26.4532 27.4919 26.4532C29.0604 26.4532 30.3306 27.7234 30.3306 29.2808C30.3306 30.8382 29.0604 32.1084 27.4919 32.1084ZM27.4919 26.9282C26.1886 26.9282 25.1393 27.9775 25.1393 29.2808C25.1393 30.5842 26.1886 31.6334 27.4919 31.6334C28.7953 31.6334 29.8446 30.5842 29.8446 29.2808C29.8446 27.9775 28.7953 26.9282 27.4919 26.9282Z" fill="#231F20" stroke="#231F20" stroke-width="0.2" stroke-miterlimit="10"/>
<path id="Vector_3" d="M33.3123 23.5373C33.3123 20.4999 30.9928 18.0037 28.0106 17.6944C27.8228 17.6723 27.6129 17.6613 27.4141 17.6613C27.2153 17.6613 27.0055 17.6723 26.8177 17.6944C26.6189 17.7054 26.4201 17.7386 26.2323 17.7828C23.5483 18.335 21.5381 20.6987 21.5381 23.5373C21.5381 24.0233 21.5933 24.4761 21.7038 24.918C21.6927 24.7965 21.6927 24.6639 21.6927 24.5424C21.6927 22.4659 22.8083 20.6435 24.4651 19.6494C25.2935 19.0088 26.3096 18.6443 27.4252 18.6443C28.5407 18.6443 29.5348 19.0198 30.3522 19.6273C32.031 20.6103 33.1687 22.4549 33.1687 24.5424C33.1687 24.6639 33.1687 24.7965 33.1576 24.918C33.2681 24.4761 33.3233 24.0122 33.3233 23.5373H33.3123Z" fill="#231F20" stroke="#231F20" stroke-width="0.2" stroke-miterlimit="10"/>
<path id="Vector_4" d="M27.4803 26.7735C27.2483 26.7735 27.0605 26.6299 27.0605 26.4532L27.0826 10.7028C27.0826 10.526 27.2704 10.3824 27.5024 10.3824C27.7343 10.3824 27.9221 10.526 27.9221 10.7028L27.9 26.4532C27.9 26.6299 27.7122 26.7735 27.4803 26.7735Z" fill="#231F20"/>
<path id="Vector_5" d="M27.4803 48.9413C27.2483 48.9413 27.0605 48.7977 27.0605 48.6209L27.0826 32.8705C27.0826 32.6938 27.2704 32.5502 27.5024 32.5502C27.7343 32.5502 27.9221 32.6938 27.9221 32.8705L27.9 48.6209C27.9 48.7977 27.7122 48.9413 27.4803 48.9413Z" fill="#231F20"/>
<path id="Vector_6" d="M32.8708 39.2436C32.672 39.3651 32.4732 39.3872 32.429 39.3099L28.4417 32.5171C28.3975 32.4397 28.519 32.2851 28.7178 32.1636C28.9166 32.0421 29.1154 32.02 29.1596 32.0973L33.1469 38.8901C33.1911 38.9675 33.0696 39.1221 32.8708 39.2436Z" fill="#231F20"/>
<path id="Vector_7" d="M35.0799 36.1288C34.9253 36.3055 34.7596 36.3939 34.7044 36.3497L29.5573 31.8101C29.5021 31.7549 29.5684 31.5782 29.723 31.4015C29.8776 31.2248 30.0433 31.1364 30.0985 31.1806L35.2456 35.7201C35.3008 35.7754 35.2346 35.9521 35.0799 36.1288Z" fill="#231F20"/>
<path id="Vector_8" d="M36.5816 32.506C36.5154 32.7269 36.4049 32.8815 36.3276 32.8594L30.3632 30.9486C30.2969 30.9265 30.2969 30.7387 30.3632 30.5178C30.4295 30.2969 30.5399 30.1423 30.6172 30.1644L36.5816 32.0752C36.6479 32.0973 36.6479 32.2851 36.5816 32.506Z" fill="#231F20"/>
<path id="Vector_9" d="M37.1562 29.0047C37.1673 29.2366 37.1231 29.4244 37.0458 29.4244L30.7169 29.7337C30.6395 29.7337 30.5733 29.5569 30.5622 29.325C30.5512 29.093 30.5954 28.9053 30.6727 28.9053L37.0016 28.596C37.0789 28.596 37.1452 28.7727 37.1562 29.0047Z" fill="#231F20"/>
<path id="Vector_10" d="M35.0908 26.0114C35.1902 26.2213 35.2233 26.409 35.1681 26.4311L30.6727 28.5187C30.6727 28.5187 30.507 28.3972 30.4076 28.1873C30.3082 27.9775 30.2751 27.7897 30.3303 27.7676L34.8257 25.6801C34.8257 25.6801 34.9914 25.8016 35.0908 26.0114Z" fill="#231F20"/>
<path id="Vector_11" d="M21.8362 38.9233L25.8235 32.1305C25.8677 32.0531 26.0665 32.0863 26.2653 32.1967C26.4641 32.3072 26.5856 32.4729 26.5415 32.5502L22.5541 39.343C22.51 39.4203 22.3111 39.3872 22.1123 39.2767C21.9135 39.1663 21.792 39.0006 21.8362 38.9233Z" fill="#231F20"/>
<path id="Vector_12" d="M19.7265 35.7533L24.8736 31.2137C24.9288 31.1585 25.1055 31.2579 25.2491 31.4346C25.3927 31.6113 25.481 31.788 25.4148 31.8433L20.2677 36.3828C20.2125 36.4381 20.0358 36.3387 19.8922 36.1619C19.7486 35.9852 19.6602 35.8085 19.7265 35.7533Z" fill="#231F20"/>
<path id="Vector_13" d="M18.39 32.0973L24.3544 30.1865C24.4207 30.1644 24.5312 30.319 24.6085 30.5399C24.6858 30.7608 24.6858 30.9486 24.6085 30.9707L18.6441 32.8815C18.5778 32.9036 18.4673 32.749 18.39 32.5281C18.3127 32.3072 18.3127 32.1194 18.39 32.0973Z" fill="#231F20"/>
<path id="Vector_14" d="M17.9708 28.6181L24.2997 28.9274C24.377 28.9274 24.4212 29.1151 24.4101 29.3471C24.3991 29.579 24.3328 29.7558 24.2555 29.7558L17.9266 29.4465C17.8493 29.4465 17.8051 29.2587 17.8161 29.0268C17.8272 28.7948 17.8935 28.6181 17.9708 28.6181Z" fill="#231F20"/>
<path id="Vector_15" d="M20.1573 25.7021L24.6527 27.7897C24.6527 27.7897 24.6637 27.9995 24.5754 28.2094C24.487 28.4193 24.3545 28.5628 24.3103 28.5407L19.8149 26.4532C19.8149 26.4532 19.8038 26.2433 19.8922 26.0335C19.9806 25.8236 20.1131 25.68 20.1573 25.7021Z" fill="#231F20"/>
</g>
</g>
<path id="Vector_16" d="M9.77539 35.8637V24.7633C9.77539 14.9773 17.7058 7.04681 27.4919 7.04681C37.2779 7.04681 45.2084 14.9773 45.2084 24.7633V35.7312" stroke="#231F20" stroke-width="0.75" stroke-linecap="round" stroke-linejoin="round"/>
</g>
<defs>
<clipPath id="clip0_6509_10233">
<rect width="54" height="54" fill="white"/>
</clipPath>
</defs>
</svg>
