<svg xmlns="http://www.w3.org/2000/svg" width="64" height="64" viewBox="0 0 64 64" fill="none">
    <g clip-path="url(#clip0_8058_10107)">
        <path
            d="M38.5218 45.4821C38.2554 45.4821 38.0384 45.2749 38.0286 45.0086C38.0187 44.7324 38.2258 44.5055 38.502 44.4957C38.8966 44.4759 39.4885 44.4858 39.9324 44.4957H40.3467C46.5711 44.4957 50.0137 35.3613 50.0137 29.0481V28.5352H13.999V29.0481C13.999 35.3613 17.4417 44.5055 23.6661 44.5055H24.0804C24.5144 44.5055 25.1161 44.4858 25.5107 44.5055C25.7869 44.5154 25.9941 44.7521 25.9842 45.0185C25.9743 45.2848 25.7376 45.5117 25.4713 45.492C25.0964 45.4722 24.5243 45.492 24.1001 45.492H23.6759C16.7216 45.492 13.0225 35.9433 13.0225 29.058V28.0518C13.0225 27.7756 13.2395 27.5586 13.5157 27.5586H50.5069C50.7831 27.5586 51.0002 27.7756 51.0002 28.0518V29.058C51.0002 35.9531 47.301 45.5018 40.3467 45.5018H39.9225C39.4983 45.492 38.9262 45.4821 38.5514 45.5018H38.5316L38.5218 45.4821Z"
            fill="#EADAD5" />
        <path
            d="M39.2816 48.3787H25.4913C25.2151 48.3787 24.998 48.1617 24.998 47.8855V44.9854C24.998 44.7092 25.2151 44.4922 25.4913 44.4922H39.2816C39.5578 44.4922 39.7748 44.7092 39.7748 44.9854V47.8855C39.7748 48.1617 39.5578 48.3787 39.2816 48.3787ZM25.9746 47.3923H38.7785V45.4786H25.9746V47.3923Z"
            fill="#EADAD5" />
        <path
            d="M49.3237 28.5255C49.3237 28.5255 49.3138 28.5255 49.304 28.5255C49.0278 28.5156 48.8206 28.2789 48.8305 28.0126C48.8305 27.8646 48.8305 27.7166 48.8305 27.5588C48.8305 21.5218 43.918 16.6192 37.8909 16.6192C31.8638 16.6192 26.9514 21.5317 26.9514 27.5588C26.9514 27.7068 26.9514 27.8646 26.9514 28.0126C26.9612 28.2888 26.7541 28.5156 26.4779 28.5255C26.2017 28.5452 25.9748 28.3282 25.9649 28.052C25.9649 27.8843 25.9551 27.7265 25.9551 27.5588C25.9551 20.9793 31.3015 15.6328 37.8811 15.6328C44.4606 15.6328 49.807 20.9793 49.807 27.5588C49.807 27.7265 49.807 27.8843 49.7972 28.052C49.7873 28.3183 49.5703 28.5255 49.304 28.5255H49.3237Z"
            fill="#EADAD5" />
        <path
            d="M44.4107 28.5253C44.4107 28.5253 44.391 28.5253 44.3713 28.5253C44.0951 28.5055 43.8978 28.2688 43.9175 28.0025C43.9274 27.8545 43.9372 27.7164 43.9372 27.5684C43.9372 24.2343 41.2245 21.5315 37.9003 21.5315C34.576 21.5315 31.8633 24.2441 31.8633 27.5684C31.8633 27.7164 31.8633 27.8644 31.883 28.0025C31.9027 28.2787 31.6956 28.5055 31.4293 28.5253C31.1531 28.545 30.9163 28.3378 30.9064 28.0715C30.8966 27.9038 30.8867 27.7361 30.8867 27.5586C30.8867 23.6819 34.0433 20.5352 37.9101 20.5352C41.7769 20.5352 44.9335 23.6917 44.9335 27.5586C44.9335 27.7263 44.9335 27.9038 44.9138 28.0715C44.8941 28.328 44.6771 28.5253 44.4206 28.5253H44.4107Z"
            fill="#EADAD5" />
        <path
            d="M40.7619 28.5299C40.7619 28.5299 40.7126 28.5299 40.683 28.5299C40.4166 28.4805 40.2292 28.2339 40.2785 27.9577C40.2983 27.8295 40.3081 27.7013 40.3081 27.5632C40.3081 26.2315 39.2231 25.1563 37.9012 25.1563C36.5794 25.1563 35.4943 26.2413 35.4943 27.5632C35.4943 27.7013 35.5042 27.8295 35.5239 27.9577C35.5733 28.2241 35.3858 28.4805 35.1195 28.5299C34.8532 28.5792 34.5967 28.3918 34.5474 28.1254C34.5178 27.9479 34.498 27.7604 34.498 27.573C34.498 25.6988 36.0172 24.1797 37.8914 24.1797C39.7656 24.1797 41.2847 25.6988 41.2847 27.573C41.2847 27.7604 41.265 27.9479 41.2354 28.1254C41.1959 28.3622 40.9888 28.5397 40.752 28.5397L40.7619 28.5299Z"
            fill="#EADAD5" />
        <path
            d="M17.9452 28.5253C17.9452 28.5253 17.9156 28.5253 17.9057 28.5253C17.6394 28.5056 17.4322 28.259 17.4618 27.9926C17.6985 25.2306 20.066 23.0703 22.8379 23.0703C23.7454 23.0703 24.6332 23.2972 25.4223 23.7312C25.6591 23.8595 25.7478 24.1653 25.6196 24.402C25.4914 24.6387 25.1856 24.7275 24.9488 24.5993C24.3077 24.2442 23.5777 24.0567 22.8379 24.0567C20.5691 24.0567 18.6455 25.8225 18.4482 28.0715C18.4285 28.328 18.2115 28.5253 17.955 28.5253H17.9452Z"
            fill="#EADAD5" />
        <path
            d="M14.6703 28.5248C14.6703 28.5248 14.6506 28.5248 14.6407 28.5248C14.3645 28.5149 14.1574 28.2782 14.1771 28.002C14.4138 23.4052 18.2116 19.8047 22.8281 19.8047C24.219 19.8047 25.6 20.1401 26.8232 20.7813C27.0599 20.9095 27.1585 21.2054 27.0303 21.4422C26.9021 21.6789 26.6061 21.7776 26.3694 21.6493C25.2745 21.0772 24.0809 20.7911 22.8281 20.7911C18.7443 20.7911 15.3805 23.9872 15.1635 28.0611C15.1537 28.3275 14.9366 28.5248 14.6703 28.5248Z"
            fill="#EADAD5" />
        <path
            d="M32 64C14.3559 64 0 49.6441 0 32C0 14.3559 14.3559 0 32 0C49.6441 0 64 14.3559 64 32C64 49.6441 49.6441 64 32 64ZM32 1.10345C14.9628 1.10345 1.10345 14.9628 1.10345 32C1.10345 49.0372 14.9628 62.8966 32 62.8966C49.0372 62.8966 62.8966 49.0372 62.8966 32C62.8966 14.9628 49.0372 1.10345 32 1.10345Z"
            fill="#EADAD5" />
    </g>
    <defs>
        <clipPath id="clip0_8058_10107">
            <rect width="64" height="64" fill="white" />
        </clipPath>
    </defs>
</svg>