<svg width="56" height="56" viewBox="0 0 56 56" fill="none" xmlns="http://www.w3.org/2000/svg">
<g id="people-icon">
<path id="Vector (Stroke)" fill-rule="evenodd" clip-rule="evenodd" d="M1 28C1 13.0883 13.0883 1 28 1C42.9117 1 55 13.0883 55 28C55 42.9117 42.9117 55 28 55C13.0883 55 1 42.9117 1 28Z" stroke="#231F20" stroke-miterlimit="10"/>
<path id="Vector" d="M48.3997 27.7812C46.9261 27.7881 45.4538 27.7909 43.9802 27.802C43.3409 27.8075 42.721 27.9003 42.1579 28.2408C41.931 28.3779 41.8479 28.4956 42.0098 28.7572C42.6989 29.8688 42.9106 31.1092 42.9355 32.3925C42.948 33.0376 42.9466 33.6827 42.9355 34.3265C42.9148 35.3592 42.4485 36.0431 41.5504 36.3892C40.3951 36.8349 38.9782 35.9365 38.9366 34.6975C38.8924 33.3865 38.8633 32.0727 39.2618 30.7922C39.4957 30.0391 39.8042 29.3276 40.2678 28.6852C40.5251 28.3294 40.521 28.2685 40.1903 27.9778C39.385 27.2732 38.4662 26.7928 37.4021 26.6281C36.0835 26.4246 34.8354 26.6281 33.6883 27.3368C32.901 27.8241 32.2769 28.4734 31.7913 29.2611C31.6294 29.5241 31.6321 29.7207 31.8881 29.9436C33.2898 31.1591 33.9512 32.7303 34.0411 34.559C34.0619 34.984 34.0494 35.4104 34.0439 35.8368C34.0301 36.9858 33.2234 37.8441 32.1275 37.8787C31.0095 37.9147 30.0589 37.073 30.0437 35.9282C30.0229 34.422 29.9606 32.913 30.0893 31.4069C30.1225 31.0123 30.254 30.6427 30.3425 30.262C30.3868 30.0751 30.3619 29.9768 30.1765 29.8827C28.5244 29.0451 26.8695 29.0258 25.198 29.8245C24.96 29.9381 24.8769 30.0709 24.9475 30.3367C25.1288 31.0178 25.1938 31.7156 25.1897 32.4216C25.1827 33.5277 25.1966 34.6324 25.1841 35.7385C25.1703 37.0343 24.275 37.9341 23.0781 37.8787C22.0999 37.833 21.2448 37.062 21.1977 36.0929C21.1479 35.0837 21.1451 34.0787 21.4385 33.0805C21.8107 31.8152 22.4666 30.7493 23.4421 29.8799C23.6524 29.6916 23.6662 29.5546 23.5278 29.3262C22.4915 27.6109 20.9749 26.6585 18.981 26.5616C17.4147 26.4855 16.0462 27.0143 14.942 28.1647C14.8078 28.3045 14.8147 28.389 14.9268 28.5412C15.6768 29.556 16.0711 30.7064 16.2275 31.9523C16.3368 32.8258 16.305 33.6993 16.2967 34.5729C16.2856 35.6444 15.407 36.4944 14.3429 36.4944C13.2373 36.4944 12.3518 35.643 12.3352 34.5521C12.3255 33.8724 12.3518 33.1927 12.3269 32.5143C12.2757 31.1411 12.587 29.8633 13.3065 28.6935C13.4393 28.4776 13.3895 28.3737 13.193 28.2588C12.5967 27.9086 11.9422 27.8075 11.2683 27.8034C9.53041 27.7951 7.79249 27.8006 6.05457 27.7992C5.60902 27.7992 5.36411 27.3867 5.58135 26.9977C5.67267 26.8329 5.84287 26.8786 5.98539 26.8786C7.67764 26.8759 9.3699 26.8759 11.0622 26.8759C11.3721 26.8759 11.6821 26.8966 11.992 26.9202C12.6617 26.9728 13.2774 27.1721 13.8351 27.539C13.9997 27.6469 14.1007 27.6511 14.2447 27.5044C15.3959 26.3207 16.8225 25.6992 18.4511 25.5912C19.6203 25.5136 20.7342 25.8044 21.7747 26.3512C22.8844 26.934 23.7326 27.7937 24.3567 28.8735C24.5061 29.131 24.6472 29.0548 24.834 28.9593C25.7418 28.49 26.72 28.2588 27.7287 28.2851C28.6862 28.3087 29.6258 28.5205 30.4823 28.9828C30.7147 29.1088 30.8116 29.0867 30.9541 28.8458C31.7774 27.4476 32.9425 26.4564 34.4922 25.9262C36.4142 25.2686 38.2116 25.5912 39.9218 26.5921C40.3369 26.8357 40.7161 27.1444 41.0426 27.5057C41.1768 27.6539 41.2875 27.6705 41.455 27.557C42.2603 27.0101 43.1707 26.8717 44.12 26.8772C45.5465 26.8855 46.9745 26.8828 48.4011 26.8855V27.784L48.3997 27.7812ZM15.371 33.5332C15.4028 33.0861 15.3779 32.5434 15.2921 32.0104C15.1371 31.0525 14.8811 30.1249 14.2986 29.3192C14.1838 29.16 14.1215 29.167 14.0385 29.3234C13.8724 29.639 13.7036 29.9505 13.586 30.2897C13.2774 31.1757 13.2996 32.1018 13.265 33.0182C13.2442 33.5678 13.2083 34.123 13.3107 34.6712C13.4214 35.2609 13.8212 35.5641 14.4162 35.5184C14.9656 35.4769 15.3461 35.0865 15.3696 34.5258C15.382 34.2268 15.3724 33.9278 15.3724 33.5346L15.371 33.5332ZM41.9655 32.9559C42.0112 31.9121 41.9655 30.6884 41.3678 29.5574C41.3055 29.4397 41.2903 29.2528 41.1423 29.2348C40.9859 29.2168 40.9402 29.4009 40.871 29.5103C39.8886 31.0649 39.7627 32.794 39.8928 34.5604C39.9426 35.2443 40.3688 35.5599 41.0329 35.517C41.5726 35.481 41.9476 35.0505 41.9642 34.4275C41.9752 34.0025 41.9655 33.5775 41.9655 32.9559ZM33.1127 35.2567C33.1431 34.9093 33.0905 34.5673 33.0615 34.2226C32.9508 32.8923 32.3973 31.7723 31.455 30.8379C31.3928 30.777 31.336 30.6676 31.2322 30.7119C31.1368 30.7521 31.1506 30.8683 31.1368 30.9569C30.8614 32.6168 31.0358 34.2891 31.0081 35.9558C31.0081 36.0015 31.0233 36.0458 31.033 36.0915C31.1465 36.5968 31.545 36.9443 32.0182 36.9526C32.5177 36.9609 32.9328 36.6259 33.0643 36.1164C33.1376 35.8326 33.103 35.5433 33.1113 35.2567H33.1127ZM24.2211 33.7215C24.2211 33.5955 24.2238 33.4682 24.2211 33.3422C24.2031 32.5503 24.2778 31.7543 24.1367 30.9666C24.1187 30.8683 24.1284 30.7354 24.0177 30.7008C23.918 30.669 23.8738 30.795 23.8101 30.8545C23.0726 31.5384 22.6312 32.3981 22.3503 33.3505C22.1109 34.159 22.1442 34.9882 22.1511 35.816C22.1566 36.4639 22.6174 36.9554 23.2013 36.9443C23.7008 36.9346 24.257 36.4819 24.2294 35.8257C24.2003 35.1252 24.2225 34.4234 24.2225 33.7215H24.2211Z" fill="#231F20"/>
<g id="Vector_2">
<mask id="path-3-inside-1_6380_12558" fill="white">
<path d="M30.6652 24.2816C30.6666 26.0079 29.3397 27.3521 27.6225 27.3632C25.9413 27.3742 24.5604 25.9885 24.5576 24.2885C24.5549 22.6024 25.9219 21.218 27.5824 21.2111C29.312 21.2042 30.7427 22.6301 30.6652 24.2816ZM27.599 26.3997C28.7488 26.4093 29.7271 25.4583 29.7423 24.3148C29.7575 23.1561 28.7682 22.1538 27.5962 22.1414C26.5238 22.1303 25.493 23.1589 25.4819 24.2525C25.4695 25.4112 26.4339 26.39 27.599 26.3997Z"/>
</mask>
<path d="M30.6652 24.2816L29.6663 24.2347L29.6652 24.2585L29.6652 24.2824L30.6652 24.2816ZM27.6225 27.3632L27.6161 26.3632L27.6159 26.3632L27.6225 27.3632ZM24.5576 24.2885L25.5576 24.2869V24.2869L24.5576 24.2885ZM27.5824 21.2111L27.5784 20.2111L27.5782 20.2111L27.5824 21.2111ZM27.599 26.3997L27.6074 25.3997L27.6073 25.3997L27.599 26.3997ZM29.7423 24.3148L30.7422 24.3281L30.7422 24.3279L29.7423 24.3148ZM27.5962 22.1414L27.6068 21.1414L27.6065 21.1414L27.5962 22.1414ZM25.4819 24.2525L26.4819 24.2633L26.4819 24.2626L25.4819 24.2525ZM29.6652 24.2824C29.6662 25.4638 28.778 26.3557 27.6161 26.3632L27.629 28.3631C29.9013 28.3485 31.6671 26.552 31.6652 24.2808L29.6652 24.2824ZM27.6159 26.3632C26.4998 26.3705 25.5595 25.4435 25.5576 24.2869L23.5576 24.2901C23.5613 26.5335 25.3829 28.3779 27.6291 28.3631L27.6159 26.3632ZM25.5576 24.2869C25.5557 23.1426 26.4868 22.2157 27.5865 22.2111L27.5782 20.2111C25.3571 20.2204 23.554 22.0621 23.5576 24.2902L25.5576 24.2869ZM27.5864 22.2111C28.7894 22.2063 29.7149 23.1995 29.6663 24.2347L31.6641 24.3285C31.7705 22.0606 29.8346 20.2021 27.5784 20.2111L27.5864 22.2111ZM27.5906 27.3996C29.285 27.4139 30.7196 26.0277 30.7422 24.3281L28.7424 24.3015C28.7346 24.8889 28.2126 25.4048 27.6074 25.3997L27.5906 27.3996ZM30.7422 24.3279C30.7649 22.6057 29.3216 21.1597 27.6068 21.1414L27.5856 23.1413C28.2148 23.148 28.7502 23.7065 28.7424 24.3017L30.7422 24.3279ZM27.6065 21.1414C26.75 21.1326 25.9776 21.5329 25.4346 22.075C24.8907 22.6179 24.4906 23.3883 24.482 24.2424L26.4819 24.2626C26.4843 24.0231 26.6052 23.7324 26.8476 23.4904C27.0908 23.2476 27.37 23.1391 27.5859 23.1413L27.6065 21.1414ZM24.482 24.2418C24.4635 25.9582 25.8769 27.3854 27.5907 27.3996L27.6073 25.3997C26.9909 25.3946 26.4754 24.8643 26.4819 24.2633L24.482 24.2418Z" fill="#231F20" mask="url(#path-3-inside-1_6380_12558)"/>
</g>
<path id="Vector_3" d="M36.4509 24.3177C36.451 24.3177 36.4511 24.3177 36.4512 24.3177L36.453 24.2452C37.7285 24.2287 38.7415 23.328 38.7399 21.9891C38.7399 21.989 38.7399 21.9889 38.7399 21.9888C38.7399 21.9782 38.7398 21.9676 38.7397 21.957L36.4509 24.3177Z" stroke="#231F20"/>
<path id="Vector_4" d="M18.7682 24.7467C17.2226 24.7398 15.9953 23.5008 15.9981 21.9531L18.7682 24.7467ZM21.0615 21.9935C21.0615 21.992 21.0615 21.9906 21.0615 21.9891L21.4802 21.9946L21.0614 21.9939C21.0614 21.9937 21.0615 21.9936 21.0615 21.9935Z" stroke="#231F20"/>
</g>
</svg>
