<svg xmlns="http://www.w3.org/2000/svg" width="64" height="64" viewBox="0 0 64 64" fill="none">
  <g clip-path="url(#clip0_8058_10063)">
    <path d="M32 64C14.3559 64 0 49.6441 0 32C0 14.3559 14.3559 0 32 0C49.6441 0 64 14.3559 64 32C64 49.6441 49.6441 64 32 64ZM32 1.10345C14.9628 1.10345 1.10345 14.9628 1.10345 32C1.10345 49.0372 14.9628 62.8966 32 62.8966C49.0372 62.8966 62.8966 49.0372 62.8966 32C62.8966 14.9628 49.0372 1.10345 32 1.10345Z" fill="#EADAD5"/>
    <mask id="mask0_8058_10063" style="mask-type:alpha" maskUnits="userSpaceOnUse" x="24" y="11" width="29" height="40">
      <rect x="24" y="11" width="29" height="40" fill="black"/>
    </mask>
    <g mask="url(#mask0_8058_10063)">
      <path d="M31.619 39.0683H14.124C13.7581 39.0683 13.4707 38.7808 13.4707 38.415C13.4707 38.0492 13.7581 37.7617 14.124 37.7617H31.619C31.9849 37.7617 32.2723 38.0492 32.2723 38.415C32.2723 38.7808 31.9849 39.0683 31.619 39.0683Z" fill="#EADAD5"/>
      <path d="M47.5727 39.0693H42.4378C42.072 39.0693 41.7845 38.7818 41.7845 38.416C41.7845 38.0501 42.072 37.7627 42.4378 37.7627H47.5727C48.3958 37.7627 49.0752 37.0833 49.0752 36.2601V29.1262C49.0752 28.3031 48.3958 27.6237 47.5727 27.6237L38.6749 27.4146C38.4528 27.4146 38.2437 27.284 38.1261 27.101L33.3179 19.0917H10.3353L2.10384 27.6367C1.85559 27.898 1.43748 27.9111 1.17617 27.6498C0.914852 27.4015 0.914851 26.9834 1.1631 26.7221L9.59051 17.9811C9.7081 17.8505 9.87796 17.7852 10.0609 17.7852H33.6838C33.9189 17.7852 34.128 17.9027 34.2456 18.0987L39.0538 26.1211L47.5727 26.3171C49.1013 26.3171 50.3687 27.5714 50.3687 29.1262V36.2601C50.3687 37.815 49.1144 39.0693 47.5596 39.0693H47.5727Z" fill="#EADAD5"/>
      <path d="M37.0293 44.8946C33.6845 44.8946 30.9668 42.1769 30.9668 38.832C30.9668 35.4872 33.6845 32.7695 37.0293 32.7695C40.1912 32.7695 42.7913 35.1475 43.0657 38.2963C43.0918 38.6491 42.8305 38.9758 42.4777 39.0019C42.125 39.0411 41.7983 38.7667 41.7722 38.4139C41.5631 35.9837 39.4726 34.0761 37.0293 34.0761C34.4031 34.0761 32.2734 36.2058 32.2734 38.832C32.2734 41.4583 34.4031 43.588 37.0293 43.588C38.2967 43.588 39.4857 43.0915 40.3872 42.203C40.6485 41.9548 41.0536 41.9548 41.3149 42.203C41.5631 42.4643 41.5631 42.8694 41.3149 43.1307C40.1651 44.2674 38.6495 44.9076 37.0293 44.9076V44.8946Z" fill="#EADAD5"/>
      <path d="M37.4985 40.6453C38.4005 40.6453 39.1317 39.9141 39.1317 39.0121C39.1317 38.1101 38.4005 37.3789 37.4985 37.3789C36.5965 37.3789 35.8652 38.1101 35.8652 39.0121C35.8652 39.9141 36.5965 40.6453 37.4985 40.6453Z" fill="#EADAD5"/>
    </g>
  </g>
  <defs>
    <clipPath id="clip0_8058_10063">
      <rect width="64" height="64" fill="white"/>
    </clipPath>
  </defs>
</svg>