<svg width="62" height="62" viewBox="0 0 62 62" fill="none" xmlns="http://www.w3.org/2000/svg">
<rect width="62" height="62" fill="white"/>
<mask id="mask0_771_3585" style="mask-type:luminance" maskUnits="userSpaceOnUse" x="1" y="2" width="61" height="60">
<path d="M61.5445 2H1.6792V61.8653H61.5445V2Z" fill="white"/>
</mask>
<g mask="url(#mask0_771_3585)">
<path d="M2.21826 31.9266C2.21826 15.7021 15.3815 2.53882 31.606 2.53882C47.8305 2.53882 60.9937 15.7021 60.9937 31.9266C60.9937 48.1511 47.8305 61.3143 31.606 61.3143C15.3815 61.3143 2.21826 48.1633 2.21826 31.9266Z" stroke="#231F20" stroke-width="0.89" stroke-miterlimit="10"/>
<path d="M35.8052 52.3266C35.5358 52.3266 35.3154 52.1307 35.3154 51.8858V30.396C35.3154 30.1511 35.5358 29.9552 35.8052 29.9552C36.0746 29.9552 36.295 30.1511 36.295 30.396V51.8736C36.295 52.1185 36.0746 52.3144 35.8052 52.3144V52.3266Z" fill="#231F20"/>
<path d="M27.4419 52.3266C27.1726 52.3266 26.9521 52.1307 26.9521 51.8858V30.396C26.9521 30.1511 27.1726 29.9552 27.4419 29.9552C27.7113 29.9552 27.9317 30.1511 27.9317 30.396V51.8736C27.9317 52.1185 27.7113 52.3144 27.4419 52.3144V52.3266Z" fill="#231F20"/>
<path d="M32.107 47.049V11.9674C32.107 11.7307 31.9151 11.5388 31.6784 11.5388H31.5682C31.3315 11.5388 31.1396 11.7307 31.1396 11.9674V47.049C31.1396 47.2857 31.3315 47.4776 31.5682 47.4776H31.6784C31.9151 47.4776 32.107 47.2857 32.107 47.049Z" fill="#231F20"/>
<path d="M19.14 24.7143H44.0216C44.2583 24.7143 44.4502 24.5224 44.4502 24.2857V24.1755C44.4502 23.9388 44.2583 23.7469 44.0216 23.7469H19.14C18.9033 23.7469 18.7114 23.9388 18.7114 24.1755V24.2857C18.7114 24.5224 18.9033 24.7143 19.14 24.7143Z" fill="#231F20"/>
<path d="M31.6048 40.3633C38.9897 40.3633 44.9763 39.1682 44.9763 37.6939C44.9763 36.2196 38.9897 35.0245 31.6048 35.0245C24.2201 35.0245 18.2334 36.2196 18.2334 37.6939C18.2334 39.1682 24.2201 40.3633 31.6048 40.3633Z" stroke="#231F20" stroke-width="0.8" stroke-miterlimit="10"/>
<path d="M33.528 17.2694L34.0545 21.8245L38.5851 22.4368L35.0831 23.3306L31.5811 24.2368L32.5484 20.747L33.528 17.2694Z" fill="#231F20"/>
<path d="M38.5362 26.196L33.9811 26.7103L33.3566 31.2409L32.4749 27.7389L31.5811 24.2368L35.0586 25.2164L38.5362 26.196Z" fill="#231F20"/>
<path d="M29.6821 31.2164L29.1556 26.6613L24.625 26.049L28.127 25.1551L31.6168 24.249L30.6495 27.7388L29.6821 31.2164Z" fill="#231F20"/>
<path d="M24.6621 22.2899L29.2172 21.7756L29.8417 17.245L30.7356 20.747L31.6172 24.2491L28.1397 23.2695L24.6621 22.2899Z" fill="#231F20"/>
</g>
</svg>
